<svg width="136" height="136" viewBox="0 0 136 136" fill="none" xmlns="http://www.w3.org/2000/svg">
<path d="M117.425 52.5004C102.825 37.6004 102.525 39.6004 92.7253 44.8004C92.7253 44.8004 55.2253 61.5004 41.4253 67.6004C40.5253 68.0004 21.8252 76.3004 21.8252 76.3004C19.8252 77.3004 18.1252 79.8004 18.0252 82.3004C17.3252 104.6 31.3253 94.8004 41.9253 90.4004L67.3252 79.1004L113.025 58.7004L112.725 58.8004C114.825 58.0004 119.225 54.3004 117.425 52.5004Z" fill="url(#paint0_linear_2572_19043)"/>
<path d="M112.449 76.4005L66.9493 56.1005L41.5493 44.8005C32.7493 40.6005 28.7493 30.7005 21.4493 36.9005C21.3493 37.0005 19.2493 50.9005 18.2493 53.4005C17.2493 55.8005 19.4493 57.9005 21.4493 58.9005C21.4493 58.9005 21.5493 58.9005 21.5493 59.0005C21.5493 59.0005 30.7493 63.1005 41.0493 67.7005C51.3493 72.3005 62.7493 77.3005 66.9493 79.2005C80.7493 85.4005 92.3493 90.5005 92.3493 90.5005C99.8493 94.6005 90.3493 110.7 111.649 101.6C111.749 101.5 115.949 81.9005 116.049 81.9005C118.449 80.9005 114.449 77.3005 112.449 76.4005Z" fill="url(#paint1_linear_2572_19043)"/>
<path d="M115.2 31.7996C104.4 26.8996 71.2 12.0996 69.7 11.4996C68.2 10.7996 66.5 10.7996 65 11.4996C63.5 12.1996 30.3 26.8996 19.4 31.7996C17.3 32.6996 16 34.7996 16 36.9996V52.6996C16 53.9996 16.4 55.0996 17 55.9996C17.7 56.8996 18.5 57.5996 19.3 57.9996L21.9 59.1996C21.9 59.1996 21.8 59.0996 21.7 59.0996C19.7 58.0996 19.5 54.9996 21.8 53.8996C21.9 53.8996 63.3 35.3996 64.9 34.6996C66.5 33.9996 68.1 33.9996 69.6 34.6996C71.1 35.3996 112.6 53.7996 112.7 53.8996C115.1 54.9996 114.8 58.0996 112.8 59.0996L113.1 58.9996L115.4 57.9996C116.2 57.5996 117 56.9996 117.7 56.0996C118.3 55.1996 118.7 54.1996 118.7 52.7996V36.9996C118.6 34.7996 117.4 32.6996 115.2 31.7996Z" fill="url(#paint2_linear_2572_19043)"/>
<path d="M19.4 103.6C30.3 108.4 63.5 123.2 65 123.9C66.5 124.6 68.2 124.6 69.7 123.9C71.2 123.2 104.4 108.5 115.3 103.6C117.4 102.7 118.7 100.6 118.7 98.4002V82.7002C118.7 81.4002 118.3 80.3002 117.7 79.4002C117 78.5002 116.2 77.8002 115.4 77.4002L112.8 76.2002C112.8 76.2002 112.9 76.3002 113 76.3002C115 77.3002 115.2 80.4002 112.9 81.5002C112.8 81.5002 71.4 100 69.8 100.7C68.3 101.4 66.6 101.4 65.1 100.7C63.6 100 22.1 81.6002 22 81.5002C19.6 80.4002 19.9 77.3002 21.9 76.3002L21.6 76.4002L19.3 77.4002C18.5 77.8002 17.7 78.4002 17 79.3002C16.4 80.2002 16 81.2002 16 82.6002V98.3002C16 100.5 17.3 102.6 19.4 103.6Z" fill="url(#paint3_linear_2572_19043)"/>
<defs>
<linearGradient id="paint0_linear_2572_19043" x1="84.4502" y1="32.1644" x2="48.9512" y2="108.29" gradientUnits="userSpaceOnUse">
<stop offset="0.00096649" stop-color="#710F08"/>
<stop offset="1" stop-color="#891814"/>
</linearGradient>
<linearGradient id="paint1_linear_2572_19043" x1="88.2213" y1="112.57" x2="47.1693" y2="24.5365" gradientUnits="userSpaceOnUse">
<stop stop-color="#8A1111"/>
<stop offset="1" stop-color="#AB131A"/>
</linearGradient>
<linearGradient id="paint2_linear_2572_19043" x1="15.993" y1="34.9956" x2="118.62" y2="34.9956" gradientUnits="userSpaceOnUse">
<stop offset="0.48" stop-color="#CD1222"/>
<stop offset="0.52" stop-color="#AB131A"/>
</linearGradient>
<linearGradient id="paint3_linear_2572_19043" x1="15.993" y1="100.34" x2="118.62" y2="100.34" gradientUnits="userSpaceOnUse">
<stop offset="0.48" stop-color="#CD1222"/>
<stop offset="0.52" stop-color="#AB131A"/>
</linearGradient>
</defs>
</svg>
